<!--?xml version="1.0" encoding="UTF-8" standalone="no"?-->

<svg width="100%" height="100%" viewBox="0 0 228 505" version="1.1" xmlns="http://www.w3.org/2000/svg" xmlns:xlink="http://www.w3.org/1999/xlink" xml:space="preserve" xmlns:serif="http://www.serif.com/" style="fill-rule: evenodd; clip-rule: evenodd; stroke-linecap: round; stroke-linejoin: round; stroke-miterlimit: 1.5;">
    <path id="Arrow" width="227.135" height="504.65" style="fill:none;" d="M0 0 L227.135 0 L227.135 504.65 L0 504.65 Z" class="wTKLfUCp_0"></path>
    <path d="M3.96,2.366L36.975,2.279L69.99,2.366" style="fill:none;stroke:rgb(178,178,178);stroke-width:3.33px;" class="wTKLfUCp_1"></path>
    <path d="M3.96,43.207L36.975,43.12L69.99,43.207" style="fill:none;stroke:rgb(178,178,178);stroke-width:3.33px;" class="wTKLfUCp_2"></path>
    <path d="M3.966,84.049L36.981,88.945L69.996,84.049" style="fill:none;stroke:rgb(178,178,178);stroke-width:3.33px;" class="wTKLfUCp_3"></path>
    <path d="M3.96,124.89L36.975,134.845L69.99,124.89" style="fill:none;stroke:rgb(178,178,178);stroke-width:3.33px;" class="wTKLfUCp_4"></path>
    <path d="M3.96,165.731L36.975,180.645L69.99,165.731" style="fill:none;stroke:rgb(178,178,178);stroke-width:3.33px;" class="wTKLfUCp_5"></path>
    <path d="M3.96,206.573L36.975,226.445L69.99,206.573" style="fill:none;stroke:rgb(178,178,178);stroke-width:3.33px;" class="wTKLfUCp_6"></path>
    <path d="M3.96,247.414L36.975,272.345L69.99,247.414" style="fill:none;stroke:rgb(178,178,178);stroke-width:3.33px;" class="wTKLfUCp_7"></path>
    <path d="M3.96,288.255L36.975,318.145L69.99,288.255" style="fill:none;stroke:rgb(178,178,178);stroke-width:3.33px;" class="wTKLfUCp_8"></path>
    <path d="M3.96,329.097L36.975,364.045L69.99,329.097" style="fill:none;stroke:rgb(178,178,178);stroke-width:3.33px;" class="wTKLfUCp_9"></path>
    <path d="M3.96,369.938L36.975,409.845L69.99,369.938" style="fill:none;stroke:rgb(178,178,178);stroke-width:3.33px;" class="wTKLfUCp_10"></path>
    <path d="M3.96,410.779L36.975,455.645L69.99,410.779" style="fill:none;stroke:rgb(178,178,178);stroke-width:3.33px;" class="wTKLfUCp_11"></path>
    <path d="M3.96,451.62L36.975,501.545L69.99,451.62" style="fill:none;stroke:rgb(178,178,178);stroke-width:3.33px;" class="wTKLfUCp_12"></path>
    <g transform="matrix(1,0,0,1,-52.8929,-6.40545)">
        <g transform="matrix(50,0,0,50,139.714,44.7)">
            <path d="M0.34,0.013C0.454,0.013 0.56,-0.067 0.56,-0.206L0.56,-0.494C0.56,-0.633 0.454,-0.713 0.34,-0.713C0.226,-0.713 0.12,-0.633 0.12,-0.494L0.12,-0.206C0.12,-0.067 0.226,0.013 0.34,0.013ZM0.34,-0.046C0.248,-0.046 0.18,-0.111 0.18,-0.211L0.18,-0.489C0.18,-0.588 0.249,-0.654 0.34,-0.654C0.431,-0.654 0.5,-0.588 0.5,-0.489L0.5,-0.211C0.5,-0.111 0.432,-0.046 0.34,-0.046ZM0.341,-0.305C0.367,-0.305 0.388,-0.326 0.388,-0.352C0.388,-0.379 0.367,-0.4 0.341,-0.4C0.314,-0.4 0.293,-0.379 0.293,-0.352C0.293,-0.326 0.314,-0.305 0.341,-0.305Z" style="fill:rgb(178,178,178);fill-rule:nonzero;" class="wTKLfUCp_13"></path>
        </g>
        <g transform="matrix(50,0,0,50,173.714,44.7)">
            <path d="M0.34,0.013C0.454,0.013 0.56,-0.067 0.56,-0.206L0.56,-0.494C0.56,-0.633 0.454,-0.713 0.34,-0.713C0.226,-0.713 0.12,-0.633 0.12,-0.494L0.12,-0.206C0.12,-0.067 0.226,0.013 0.34,0.013ZM0.34,-0.046C0.248,-0.046 0.18,-0.111 0.18,-0.211L0.18,-0.489C0.18,-0.588 0.249,-0.654 0.34,-0.654C0.431,-0.654 0.5,-0.588 0.5,-0.489L0.5,-0.211C0.5,-0.111 0.432,-0.046 0.34,-0.046ZM0.341,-0.305C0.367,-0.305 0.388,-0.326 0.388,-0.352C0.388,-0.379 0.367,-0.4 0.341,-0.4C0.314,-0.4 0.293,-0.379 0.293,-0.352C0.293,-0.326 0.314,-0.305 0.341,-0.305Z" style="fill:rgb(178,178,178);fill-rule:nonzero;" class="wTKLfUCp_14"></path>
        </g>
        <g transform="matrix(50,0,0,50,207.714,44.7)">
            <path d="M0.333,0.012C0.482,0.012 0.564,-0.094 0.564,-0.213C0.564,-0.335 0.467,-0.425 0.343,-0.428L0.343,-0.434L0.537,-0.64L0.537,-0.7L0.132,-0.7L0.132,-0.644L0.459,-0.644L0.459,-0.638L0.267,-0.43L0.267,-0.374L0.329,-0.374C0.426,-0.374 0.501,-0.308 0.501,-0.211C0.501,-0.114 0.438,-0.046 0.333,-0.046C0.239,-0.046 0.176,-0.115 0.174,-0.19L0.116,-0.19C0.116,-0.101 0.192,0.012 0.333,0.012Z" style="fill:rgb(178,178,178);fill-rule:nonzero;" class="wTKLfUCp_15"></path>
        </g>
        <g transform="matrix(50,0,0,50,241.714,44.7)">
            <path width="0.255" height="0.056" style="fill:rgb(178,178,178);fill-rule:nonzero;" d="M0.212 -0.327 L0.46699999999999997 -0.327 L0.46699999999999997 -0.271 L0.212 -0.271 Z" class="wTKLfUCp_16"></path>
        </g>
        <g transform="matrix(50,0,0,50,139.714,94.7)">
            <path d="M0.089,-0L0.148,-0L0.148,-0.591L0.154,-0.591L0.524,-0L0.591,-0L0.591,-0.7L0.532,-0.7L0.532,-0.109L0.526,-0.109L0.153,-0.7L0.089,-0.7L0.089,-0Z" style="fill:rgb(178,178,178);fill-rule:nonzero;" class="wTKLfUCp_17"></path>
        </g>
        <g transform="matrix(50,0,0,50,173.714,94.7)">
            <path d="M0.345,0.013C0.497,0.013 0.584,-0.074 0.584,-0.182C0.584,-0.46 0.182,-0.325 0.182,-0.531C0.182,-0.598 0.236,-0.657 0.341,-0.657C0.437,-0.657 0.506,-0.606 0.506,-0.513L0.569,-0.513C0.569,-0.655 0.448,-0.713 0.342,-0.713C0.205,-0.713 0.12,-0.63 0.12,-0.531C0.12,-0.257 0.522,-0.407 0.522,-0.178C0.522,-0.099 0.453,-0.044 0.347,-0.044C0.233,-0.044 0.158,-0.113 0.158,-0.205L0.096,-0.205C0.096,-0.075 0.205,0.013 0.345,0.013Z" style="fill:rgb(178,178,178);fill-rule:nonzero;" class="wTKLfUCp_18"></path>
        </g>
        <g transform="matrix(50,0,0,50,207.714,94.7)">
            <path d="M0.103,-0L0.165,-0L0.165,-0.29L0.341,-0.29L0.505,-0L0.577,-0L0.406,-0.296C0.491,-0.317 0.559,-0.392 0.559,-0.497C0.559,-0.62 0.474,-0.7 0.336,-0.7L0.103,-0.7L0.103,-0ZM0.165,-0.345L0.165,-0.645L0.333,-0.645C0.437,-0.645 0.495,-0.583 0.495,-0.497C0.495,-0.399 0.428,-0.345 0.336,-0.345L0.165,-0.345Z" style="fill:rgb(178,178,178);fill-rule:nonzero;" class="wTKLfUCp_19"></path>
        </g>
        <g transform="matrix(50,0,0,50,241.714,94.7)">
            <path d="M0.296,-0L0.379,-0L0.634,-0.7L0.564,-0.7L0.339,-0.067L0.333,-0.067L0.112,-0.7L0.046,-0.7L0.296,-0Z" style="fill:rgb(178,178,178);fill-rule:nonzero;" class="wTKLfUCp_20"></path>
        </g>
        <g transform="matrix(50,0,0,50,139.714,144.7)">
            <path d="M0.114,-0L0.353,-0C0.469,-0 0.566,-0.07 0.566,-0.197C0.566,-0.297 0.497,-0.348 0.447,-0.363L0.447,-0.369C0.506,-0.398 0.542,-0.453 0.542,-0.521C0.542,-0.624 0.466,-0.7 0.339,-0.7L0.114,-0.7L0.114,-0ZM0.174,-0.389L0.174,-0.645L0.339,-0.645C0.422,-0.645 0.479,-0.594 0.479,-0.517C0.479,-0.442 0.42,-0.389 0.341,-0.389L0.174,-0.389ZM0.174,-0.054L0.174,-0.337L0.341,-0.337C0.428,-0.337 0.503,-0.29 0.503,-0.198C0.503,-0.1 0.433,-0.054 0.343,-0.054L0.174,-0.054Z" style="fill:rgb(178,178,178);fill-rule:nonzero;" class="wTKLfUCp_21"></path>
        </g>
        <g transform="matrix(50,0,0,50,173.714,144.7)">
            <path d="M0.105,-0L0.575,-0L0.575,-0.059L0.167,-0.059L0.167,-0.7L0.105,-0.7L0.105,-0Z" style="fill:rgb(178,178,178);fill-rule:nonzero;" class="wTKLfUCp_22"></path>
        </g>
        <g transform="matrix(50,0,0,50,207.714,144.7)">
            <path d="M0.339,0.013C0.481,0.013 0.589,-0.084 0.595,-0.222L0.534,-0.222C0.528,-0.124 0.456,-0.046 0.339,-0.046C0.214,-0.046 0.146,-0.134 0.146,-0.238L0.146,-0.462C0.146,-0.566 0.215,-0.654 0.339,-0.654C0.456,-0.654 0.528,-0.575 0.534,-0.477L0.595,-0.477C0.589,-0.616 0.481,-0.713 0.339,-0.713C0.192,-0.713 0.085,-0.611 0.085,-0.466L0.085,-0.234C0.085,-0.089 0.192,0.013 0.339,0.013Z" style="fill:rgb(178,178,178);fill-rule:nonzero;" class="wTKLfUCp_23"></path>
        </g>
        <g transform="matrix(50,0,0,50,241.714,144.7)">
            <path d="M0.578,-0L0.312,-0.405L0.568,-0.7L0.491,-0.7L0.169,-0.325L0.163,-0.325L0.163,-0.7L0.102,-0.7L0.102,-0L0.163,-0L0.163,-0.232L0.271,-0.356L0.502,-0L0.578,-0Z" style="fill:rgb(178,178,178);fill-rule:nonzero;" class="wTKLfUCp_24"></path>
        </g>
    </g>
    <g transform="matrix(1,0,0,1,-21.2632,69.1909)">
        <g transform="matrix(50,0,0,50,108.684,384.809)">
            <path d="M0.345,0.013C0.497,0.013 0.584,-0.074 0.584,-0.182C0.584,-0.46 0.182,-0.325 0.182,-0.531C0.182,-0.598 0.236,-0.657 0.341,-0.657C0.437,-0.657 0.506,-0.606 0.506,-0.513L0.569,-0.513C0.569,-0.655 0.448,-0.713 0.342,-0.713C0.205,-0.713 0.12,-0.63 0.12,-0.531C0.12,-0.257 0.522,-0.407 0.522,-0.178C0.522,-0.099 0.453,-0.044 0.347,-0.044C0.233,-0.044 0.158,-0.113 0.158,-0.205L0.096,-0.205C0.096,-0.075 0.205,0.013 0.345,0.013Z" style="fill:rgb(178,178,178);fill-rule:nonzero;" class="wTKLfUCp_25"></path>
        </g>
        <g transform="matrix(50,0,0,50,142.684,384.809)">
            <path d="M0.142,-0L0.538,-0L0.538,-0.056L0.204,-0.056L0.204,-0.329L0.485,-0.329L0.485,-0.384L0.204,-0.384L0.204,-0.644L0.53,-0.644L0.53,-0.7L0.142,-0.7L0.142,-0Z" style="fill:rgb(178,178,178);fill-rule:nonzero;" class="wTKLfUCp_26"></path>
        </g>
        <g transform="matrix(50,0,0,50,176.684,384.809)">
            <path d="M0.142,-0L0.538,-0L0.538,-0.056L0.204,-0.056L0.204,-0.329L0.485,-0.329L0.485,-0.384L0.204,-0.384L0.204,-0.644L0.53,-0.644L0.53,-0.7L0.142,-0.7L0.142,-0Z" style="fill:rgb(178,178,178);fill-rule:nonzero;" class="wTKLfUCp_27"></path>
        </g>
        <g transform="matrix(50,0,0,50,108.684,434.809)">
            <path d="M0.077,-0L0.136,-0L0.136,-0.568L0.142,-0.568L0.295,-0L0.385,-0L0.538,-0.568L0.544,-0.568L0.544,-0L0.603,-0L0.603,-0.7L0.514,-0.7L0.343,-0.067L0.337,-0.067L0.166,-0.7L0.077,-0.7L0.077,-0Z" style="fill:rgb(178,178,178);fill-rule:nonzero;" class="wTKLfUCp_28"></path>
        </g>
        <g transform="matrix(50,0,0,50,142.684,434.809)">
            <path d="M0.339,0.013C0.485,0.013 0.595,-0.09 0.595,-0.234L0.595,-0.466C0.595,-0.61 0.485,-0.713 0.339,-0.713C0.192,-0.713 0.085,-0.611 0.085,-0.466L0.085,-0.234C0.085,-0.089 0.192,0.013 0.339,0.013ZM0.339,-0.046C0.214,-0.046 0.146,-0.134 0.146,-0.238L0.146,-0.462C0.146,-0.566 0.215,-0.654 0.339,-0.654C0.463,-0.654 0.534,-0.566 0.534,-0.462L0.534,-0.238C0.534,-0.134 0.463,-0.046 0.339,-0.046Z" style="fill:rgb(178,178,178);fill-rule:nonzero;" class="wTKLfUCp_29"></path>
        </g>
        <g transform="matrix(50,0,0,50,176.684,434.809)">
            <path d="M0.103,-0L0.165,-0L0.165,-0.29L0.341,-0.29L0.505,-0L0.577,-0L0.406,-0.296C0.491,-0.317 0.559,-0.392 0.559,-0.497C0.559,-0.62 0.474,-0.7 0.336,-0.7L0.103,-0.7L0.103,-0ZM0.165,-0.345L0.165,-0.645L0.333,-0.645C0.437,-0.645 0.495,-0.583 0.495,-0.497C0.495,-0.399 0.428,-0.345 0.336,-0.345L0.165,-0.345Z" style="fill:rgb(178,178,178);fill-rule:nonzero;" class="wTKLfUCp_30"></path>
        </g>
        <g transform="matrix(50,0,0,50,210.684,434.809)">
            <path d="M0.142,-0L0.538,-0L0.538,-0.056L0.204,-0.056L0.204,-0.329L0.485,-0.329L0.485,-0.384L0.204,-0.384L0.204,-0.644L0.53,-0.644L0.53,-0.7L0.142,-0.7L0.142,-0Z" style="fill:rgb(178,178,178);fill-rule:nonzero;" class="wTKLfUCp_31"></path>
        </g>
    </g>
<style data-made-with="vivus-instant">.wTKLfUCp_0{stroke-dasharray:1464 1466;stroke-dashoffset:1465;animation:wTKLfUCp_draw_0 6200ms ease-out 0ms infinite,wTKLfUCp_fade 6200ms linear 0ms infinite;}.wTKLfUCp_1{stroke-dasharray:67 69;stroke-dashoffset:68;animation:wTKLfUCp_draw_1 6200ms ease-out 0ms infinite,wTKLfUCp_fade 6200ms linear 0ms infinite;}.wTKLfUCp_2{stroke-dasharray:67 69;stroke-dashoffset:68;animation:wTKLfUCp_draw_2 6200ms ease-out 0ms infinite,wTKLfUCp_fade 6200ms linear 0ms infinite;}.wTKLfUCp_3{stroke-dasharray:67 69;stroke-dashoffset:68;animation:wTKLfUCp_draw_3 6200ms ease-out 0ms infinite,wTKLfUCp_fade 6200ms linear 0ms infinite;}.wTKLfUCp_4{stroke-dasharray:69 71;stroke-dashoffset:70;animation:wTKLfUCp_draw_4 6200ms ease-out 0ms infinite,wTKLfUCp_fade 6200ms linear 0ms infinite;}.wTKLfUCp_5{stroke-dasharray:73 75;stroke-dashoffset:74;animation:wTKLfUCp_draw_5 6200ms ease-out 0ms infinite,wTKLfUCp_fade 6200ms linear 0ms infinite;}.wTKLfUCp_6{stroke-dasharray:78 80;stroke-dashoffset:79;animation:wTKLfUCp_draw_6 6200ms ease-out 0ms infinite,wTKLfUCp_fade 6200ms linear 0ms infinite;}.wTKLfUCp_7{stroke-dasharray:83 85;stroke-dashoffset:84;animation:wTKLfUCp_draw_7 6200ms ease-out 0ms infinite,wTKLfUCp_fade 6200ms linear 0ms infinite;}.wTKLfUCp_8{stroke-dasharray:90 92;stroke-dashoffset:91;animation:wTKLfUCp_draw_8 6200ms ease-out 0ms infinite,wTKLfUCp_fade 6200ms linear 0ms infinite;}.wTKLfUCp_9{stroke-dasharray:97 99;stroke-dashoffset:98;animation:wTKLfUCp_draw_9 6200ms ease-out 0ms infinite,wTKLfUCp_fade 6200ms linear 0ms infinite;}.wTKLfUCp_10{stroke-dasharray:104 106;stroke-dashoffset:105;animation:wTKLfUCp_draw_10 6200ms ease-out 0ms infinite,wTKLfUCp_fade 6200ms linear 0ms infinite;}.wTKLfUCp_11{stroke-dasharray:112 114;stroke-dashoffset:113;animation:wTKLfUCp_draw_11 6200ms ease-out 0ms infinite,wTKLfUCp_fade 6200ms linear 0ms infinite;}.wTKLfUCp_12{stroke-dasharray:120 122;stroke-dashoffset:121;animation:wTKLfUCp_draw_12 6200ms ease-out 0ms infinite,wTKLfUCp_fade 6200ms linear 0ms infinite;}.wTKLfUCp_13{stroke-dasharray:4 6;stroke-dashoffset:5;animation:wTKLfUCp_draw_13 6200ms ease-out 0ms infinite,wTKLfUCp_fade 6200ms linear 0ms infinite;}.wTKLfUCp_14{stroke-dasharray:4 6;stroke-dashoffset:5;animation:wTKLfUCp_draw_14 6200ms ease-out 0ms infinite,wTKLfUCp_fade 6200ms linear 0ms infinite;}.wTKLfUCp_15{stroke-dasharray:4 6;stroke-dashoffset:5;animation:wTKLfUCp_draw_15 6200ms ease-out 0ms infinite,wTKLfUCp_fade 6200ms linear 0ms infinite;}.wTKLfUCp_16{stroke-dasharray:1 3;stroke-dashoffset:2;animation:wTKLfUCp_draw_16 6200ms ease-out 0ms infinite,wTKLfUCp_fade 6200ms linear 0ms infinite;}.wTKLfUCp_17{stroke-dasharray:5 7;stroke-dashoffset:6;animation:wTKLfUCp_draw_17 6200ms ease-out 0ms infinite,wTKLfUCp_fade 6200ms linear 0ms infinite;}.wTKLfUCp_18{stroke-dasharray:4 6;stroke-dashoffset:5;animation:wTKLfUCp_draw_18 6200ms ease-out 0ms infinite,wTKLfUCp_fade 6200ms linear 0ms infinite;}.wTKLfUCp_19{stroke-dasharray:4 6;stroke-dashoffset:5;animation:wTKLfUCp_draw_19 6200ms ease-out 0ms infinite,wTKLfUCp_fade 6200ms linear 0ms infinite;}.wTKLfUCp_20{stroke-dasharray:4 6;stroke-dashoffset:5;animation:wTKLfUCp_draw_20 6200ms ease-out 0ms infinite,wTKLfUCp_fade 6200ms linear 0ms infinite;}.wTKLfUCp_21{stroke-dasharray:5 7;stroke-dashoffset:6;animation:wTKLfUCp_draw_21 6200ms ease-out 0ms infinite,wTKLfUCp_fade 6200ms linear 0ms infinite;}.wTKLfUCp_22{stroke-dasharray:3 5;stroke-dashoffset:4;animation:wTKLfUCp_draw_22 6200ms ease-out 0ms infinite,wTKLfUCp_fade 6200ms linear 0ms infinite;}.wTKLfUCp_23{stroke-dasharray:4 6;stroke-dashoffset:5;animation:wTKLfUCp_draw_23 6200ms ease-out 0ms infinite,wTKLfUCp_fade 6200ms linear 0ms infinite;}.wTKLfUCp_24{stroke-dasharray:4 6;stroke-dashoffset:5;animation:wTKLfUCp_draw_24 6200ms ease-out 0ms infinite,wTKLfUCp_fade 6200ms linear 0ms infinite;}.wTKLfUCp_25{stroke-dasharray:4 6;stroke-dashoffset:5;animation:wTKLfUCp_draw_25 6200ms ease-out 0ms infinite,wTKLfUCp_fade 6200ms linear 0ms infinite;}.wTKLfUCp_26{stroke-dasharray:4 6;stroke-dashoffset:5;animation:wTKLfUCp_draw_26 6200ms ease-out 0ms infinite,wTKLfUCp_fade 6200ms linear 0ms infinite;}.wTKLfUCp_27{stroke-dasharray:4 6;stroke-dashoffset:5;animation:wTKLfUCp_draw_27 6200ms ease-out 0ms infinite,wTKLfUCp_fade 6200ms linear 0ms infinite;}.wTKLfUCp_28{stroke-dasharray:6 8;stroke-dashoffset:7;animation:wTKLfUCp_draw_28 6200ms ease-out 0ms infinite,wTKLfUCp_fade 6200ms linear 0ms infinite;}.wTKLfUCp_29{stroke-dasharray:4 6;stroke-dashoffset:5;animation:wTKLfUCp_draw_29 6200ms ease-out 0ms infinite,wTKLfUCp_fade 6200ms linear 0ms infinite;}.wTKLfUCp_30{stroke-dasharray:4 6;stroke-dashoffset:5;animation:wTKLfUCp_draw_30 6200ms ease-out 0ms infinite,wTKLfUCp_fade 6200ms linear 0ms infinite;}.wTKLfUCp_31{stroke-dasharray:4 6;stroke-dashoffset:5;animation:wTKLfUCp_draw_31 6200ms ease-out 0ms infinite,wTKLfUCp_fade 6200ms linear 0ms infinite;}@keyframes wTKLfUCp_draw{100%{stroke-dashoffset:0;}}@keyframes wTKLfUCp_fade{0%{stroke-opacity:1;}93.54838709677419%{stroke-opacity:1;}100%{stroke-opacity:0;}}@keyframes wTKLfUCp_draw_0{12.903225806451612%{stroke-dashoffset: 1465}31.086397994265784%{ stroke-dashoffset: 0;}100%{ stroke-dashoffset: 0;}}@keyframes wTKLfUCp_draw_1{31.086397994265784%{stroke-dashoffset: 68}31.930395065099482%{ stroke-dashoffset: 0;}100%{ stroke-dashoffset: 0;}}@keyframes wTKLfUCp_draw_2{31.930395065099482%{stroke-dashoffset: 68}32.77439213593317%{ stroke-dashoffset: 0;}100%{ stroke-dashoffset: 0;}}@keyframes wTKLfUCp_draw_3{32.77439213593317%{stroke-dashoffset: 68}33.61838920676688%{ stroke-dashoffset: 0;}100%{ stroke-dashoffset: 0;}}@keyframes wTKLfUCp_draw_4{33.61838920676688%{stroke-dashoffset: 70}34.487209720860385%{ stroke-dashoffset: 0;}100%{ stroke-dashoffset: 0;}}@keyframes wTKLfUCp_draw_5{34.48720972086038%{stroke-dashoffset: 74}35.405677121473516%{ stroke-dashoffset: 0;}100%{ stroke-dashoffset: 0;}}@keyframes wTKLfUCp_draw_6{35.405677121473516%{stroke-dashoffset: 79}36.3862031302362%{ stroke-dashoffset: 0;}100%{ stroke-dashoffset: 0;}}@keyframes wTKLfUCp_draw_7{36.3862031302362%{stroke-dashoffset: 84}37.428787747148405%{ stroke-dashoffset: 0;}100%{ stroke-dashoffset: 0;}}@keyframes wTKLfUCp_draw_8{37.428787747148405%{stroke-dashoffset: 91}38.55825441546997%{ stroke-dashoffset: 0;}100%{ stroke-dashoffset: 0;}}@keyframes wTKLfUCp_draw_9{38.55825441546997%{stroke-dashoffset: 98}39.774603135200884%{ stroke-dashoffset: 0;}100%{ stroke-dashoffset: 0;}}@keyframes wTKLfUCp_draw_10{39.774603135200884%{stroke-dashoffset: 105}41.07783390634114%{ stroke-dashoffset: 0;}100%{ stroke-dashoffset: 0;}}@keyframes wTKLfUCp_draw_11{41.07783390634115%{stroke-dashoffset: 113}42.48035845052067%{ stroke-dashoffset: 0;}100%{ stroke-dashoffset: 0;}}@keyframes wTKLfUCp_draw_12{42.48035845052067%{stroke-dashoffset: 121}43.982176767739446%{ stroke-dashoffset: 0;}100%{ stroke-dashoffset: 0;}}@keyframes wTKLfUCp_draw_13{43.98217676773945%{stroke-dashoffset: 5}44.04423537588899%{ stroke-dashoffset: 0;}100%{ stroke-dashoffset: 0;}}@keyframes wTKLfUCp_draw_14{44.04423537588899%{stroke-dashoffset: 5}44.10629398403852%{ stroke-dashoffset: 0;}100%{ stroke-dashoffset: 0;}}@keyframes wTKLfUCp_draw_15{44.10629398403853%{stroke-dashoffset: 5}44.168352592188064%{ stroke-dashoffset: 0;}100%{ stroke-dashoffset: 0;}}@keyframes wTKLfUCp_draw_16{44.16835259218806%{stroke-dashoffset: 2}44.19317603544787%{ stroke-dashoffset: 0;}100%{ stroke-dashoffset: 0;}}@keyframes wTKLfUCp_draw_17{44.19317603544788%{stroke-dashoffset: 6}44.26764636522733%{ stroke-dashoffset: 0;}100%{ stroke-dashoffset: 0;}}@keyframes wTKLfUCp_draw_18{44.26764636522732%{stroke-dashoffset: 5}44.329704973376856%{ stroke-dashoffset: 0;}100%{ stroke-dashoffset: 0;}}@keyframes wTKLfUCp_draw_19{44.329704973376856%{stroke-dashoffset: 5}44.39176358152639%{ stroke-dashoffset: 0;}100%{ stroke-dashoffset: 0;}}@keyframes wTKLfUCp_draw_20{44.39176358152639%{stroke-dashoffset: 5}44.453822189675925%{ stroke-dashoffset: 0;}100%{ stroke-dashoffset: 0;}}@keyframes wTKLfUCp_draw_21{44.45382218967593%{stroke-dashoffset: 6}44.52829251945538%{ stroke-dashoffset: 0;}100%{ stroke-dashoffset: 0;}}@keyframes wTKLfUCp_draw_22{44.52829251945537%{stroke-dashoffset: 4}44.577939405975%{ stroke-dashoffset: 0;}100%{ stroke-dashoffset: 0;}}@keyframes wTKLfUCp_draw_23{44.577939405975%{stroke-dashoffset: 5}44.63999801412454%{ stroke-dashoffset: 0;}100%{ stroke-dashoffset: 0;}}@keyframes wTKLfUCp_draw_24{44.63999801412454%{stroke-dashoffset: 5}44.70205662227407%{ stroke-dashoffset: 0;}100%{ stroke-dashoffset: 0;}}@keyframes wTKLfUCp_draw_25{44.70205662227407%{stroke-dashoffset: 5}44.764115230423606%{ stroke-dashoffset: 0;}100%{ stroke-dashoffset: 0;}}@keyframes wTKLfUCp_draw_26{44.76411523042361%{stroke-dashoffset: 5}44.82617383857315%{ stroke-dashoffset: 0;}100%{ stroke-dashoffset: 0;}}@keyframes wTKLfUCp_draw_27{44.82617383857315%{stroke-dashoffset: 5}44.88823244672268%{ stroke-dashoffset: 0;}100%{ stroke-dashoffset: 0;}}@keyframes wTKLfUCp_draw_28{44.88823244672268%{stroke-dashoffset: 7}44.97511449813204%{ stroke-dashoffset: 0;}100%{ stroke-dashoffset: 0;}}@keyframes wTKLfUCp_draw_29{44.97511449813204%{stroke-dashoffset: 5}45.03717310628157%{ stroke-dashoffset: 0;}100%{ stroke-dashoffset: 0;}}@keyframes wTKLfUCp_draw_30{45.03717310628158%{stroke-dashoffset: 5}45.09923171443111%{ stroke-dashoffset: 0;}100%{ stroke-dashoffset: 0;}}@keyframes wTKLfUCp_draw_31{45.099231714431106%{stroke-dashoffset: 5}45.16129032258064%{ stroke-dashoffset: 0;}100%{ stroke-dashoffset: 0;}}</style></svg>
