<!--?xml version="1.0" encoding="UTF-8" standalone="no"?-->

<svg width="100%" height="100%" viewBox="0 0 1495 124" version="1.1" xmlns="http://www.w3.org/2000/svg" xmlns:xlink="http://www.w3.org/1999/xlink" xml:space="preserve" xmlns:serif="http://www.serif.com/" style="fill-rule: evenodd; clip-rule: evenodd; stroke-linecap: round; stroke-linejoin: round; stroke-miterlimit: 1.5;" class="">
    <g id="Xs-and--s" serif:id="Xs and +s" transform="matrix(0.91732,0,0,0.537977,0,0)">
        <g transform="matrix(0.957369,0,0,1.63244,16.7613,14.0355)">
            <path style="fill:none;stroke:rgb(236,236,236);stroke-width:9.68px;" d="M0,62A62,62 0,1,1 124,62A62,62 0,1,1 0,62" class="BmKogaAy_0"></path>
        </g>
        <g transform="matrix(0.957369,0,0,1.63244,174.734,14.0355)">
            <path style="fill:none;stroke:rgb(236,236,236);stroke-width:9.68px;" d="M0,62A62,62 0,1,1 124,62A62,62 0,1,1 0,62" class="BmKogaAy_1"></path>
        </g>
        <g transform="matrix(0.957369,0,0,1.63244,332.707,14.0355)">
            <path style="fill:none;stroke:rgb(236,236,236);stroke-width:9.68px;" d="M0,62A62,62 0,1,1 124,62A62,62 0,1,1 0,62" class="BmKogaAy_2"></path>
        </g>
        <g transform="matrix(0.957369,0,0,1.63244,490.68,14.0355)">
            <path style="fill:none;stroke:rgb(236,236,236);stroke-width:9.68px;" d="M0,62A62,62 0,1,1 124,62A62,62 0,1,1 0,62" class="BmKogaAy_3"></path>
        </g>
        <g transform="matrix(0.957369,0,0,1.63244,648.653,14.0355)">
            <path style="fill:none;stroke:rgb(236,236,236);stroke-width:9.68px;" d="M0,62A62,62 0,1,1 124,62A62,62 0,1,1 0,62" class="BmKogaAy_4"></path>
        </g>
        <g transform="matrix(0.957369,0,0,1.63244,806.625,14.0355)">
            <path style="fill:none;stroke:rgb(236,236,236);stroke-width:9.68px;" d="M0,62A62,62 0,1,1 124,62A62,62 0,1,1 0,62" class="BmKogaAy_5"></path>
        </g>
        <g transform="matrix(0.957369,0,0,1.63244,964.598,14.0355)">
            <path style="fill:none;stroke:rgb(236,236,236);stroke-width:9.68px;" d="M0,62A62,62 0,1,1 124,62A62,62 0,1,1 0,62" class="BmKogaAy_6"></path>
        </g>
        <g transform="matrix(0.957369,0,0,1.63244,1122.57,14.0355)">
            <path style="fill:none;stroke:rgb(236,236,236);stroke-width:9.68px;" d="M0,62A62,62 0,1,1 124,62A62,62 0,1,1 0,62" class="BmKogaAy_7"></path>
        </g>
    </g>
<style data-made-with="vivus-instant">.BmKogaAy_0{stroke-dasharray:390 392;stroke-dashoffset:391;}.start .BmKogaAy_0{animation:BmKogaAy_draw 800ms ease-in-out 0ms forwards;}.BmKogaAy_1{stroke-dasharray:390 392;stroke-dashoffset:391;}.start .BmKogaAy_1{animation:BmKogaAy_draw 800ms ease-in-out 57ms forwards;}.BmKogaAy_2{stroke-dasharray:390 392;stroke-dashoffset:391;}.start .BmKogaAy_2{animation:BmKogaAy_draw 800ms ease-in-out 114ms forwards;}.BmKogaAy_3{stroke-dasharray:390 392;stroke-dashoffset:391;}.start .BmKogaAy_3{animation:BmKogaAy_draw 800ms ease-in-out 171ms forwards;}.BmKogaAy_4{stroke-dasharray:390 392;stroke-dashoffset:391;}.start .BmKogaAy_4{animation:BmKogaAy_draw 800ms ease-in-out 228ms forwards;}.BmKogaAy_5{stroke-dasharray:390 392;stroke-dashoffset:391;}.start .BmKogaAy_5{animation:BmKogaAy_draw 800ms ease-in-out 285ms forwards;}.BmKogaAy_6{stroke-dasharray:390 392;stroke-dashoffset:391;}.start .BmKogaAy_6{animation:BmKogaAy_draw 800ms ease-in-out 342ms forwards;}.BmKogaAy_7{stroke-dasharray:390 392;stroke-dashoffset:391;}.start .BmKogaAy_7{animation:BmKogaAy_draw 800ms ease-in-out 400ms forwards;}@keyframes BmKogaAy_draw{100%{stroke-dashoffset:0;}}@keyframes BmKogaAy_fade{0%{stroke-opacity:1;}92.5925925925926%{stroke-opacity:1;}100%{stroke-opacity:0;}}</style></svg>
