<!--?xml version="1.0" encoding="UTF-8" standalone="no"?-->

<svg width="100%" height="100%" viewBox="0 0 1495 124" version="1.1" xmlns="http://www.w3.org/2000/svg" xmlns:xlink="http://www.w3.org/1999/xlink" xml:space="preserve" xmlns:serif="http://www.serif.com/" style="fill-rule: evenodd; clip-rule: evenodd; stroke-linecap: round; stroke-linejoin: round; stroke-miterlimit: 1.5;" class="">
    <g id="Xs-and--s" serif:id="Xs and +s" transform="matrix(0.91732,0,0,0.537977,0,0)">
        <g transform="matrix(1.09013,0,0,1.85882,0,0)">
            <path d="M0,124L66.723,0" style="fill:none;stroke:black;stroke-width:4px;" class="GBIGWael_0"></path>
        </g>
        <g transform="matrix(1.09013,0,0,1.85882,91.8663,0)">
            <path d="M0,124L66.723,0" style="fill:none;stroke:black;stroke-width:4px;" class="GBIGWael_1"></path>
        </g>
        <g transform="matrix(1.09013,0,0,1.85882,183.733,0)">
            <path d="M0,124L66.723,0" style="fill:none;stroke:black;stroke-width:4px;" class="GBIGWael_2"></path>
        </g>
        <g transform="matrix(1.09013,0,0,1.85882,275.599,0)">
            <path d="M0,124L66.723,0" style="fill:none;stroke:black;stroke-width:4px;" class="GBIGWael_3"></path>
        </g>
        <g transform="matrix(1.09013,0,0,1.85882,367.465,0)">
            <path d="M0,124L66.723,0" style="fill:none;stroke:black;stroke-width:4px;" class="GBIGWael_4"></path>
        </g>
        <g transform="matrix(1.09013,0,0,1.85882,459.331,0)">
            <path d="M0,124L66.723,0" style="fill:none;stroke:black;stroke-width:4px;" class="GBIGWael_5"></path>
        </g>
        <g transform="matrix(1.09013,0,0,1.85882,551.198,0)">
            <path d="M0,124L66.723,0" style="fill:none;stroke:black;stroke-width:4px;" class="GBIGWael_6"></path>
        </g>
        <g transform="matrix(1.09013,0,0,1.85882,643.064,0)">
            <path d="M0,124L66.723,0" style="fill:none;stroke:black;stroke-width:4px;" class="GBIGWael_7"></path>
        </g>
        <g transform="matrix(1.09013,0,0,1.85882,734.93,0)">
            <path d="M0,124L66.723,0" style="fill:none;stroke:black;stroke-width:4px;" class="GBIGWael_8"></path>
        </g>
        <g transform="matrix(1.09013,0,0,1.85882,826.797,0)">
            <path d="M0,124L66.723,0" style="fill:none;stroke:black;stroke-width:4px;" class="GBIGWael_9"></path>
        </g>
        <g transform="matrix(1.09013,0,0,1.85882,918.663,0)">
            <path d="M0,124L66.723,0" style="fill:none;stroke:black;stroke-width:4px;" class="GBIGWael_10"></path>
        </g>
        <g transform="matrix(1.09013,0,0,1.85882,1010.53,0)">
            <path d="M0,124L66.723,0" style="fill:none;stroke:black;stroke-width:4px;" class="GBIGWael_11"></path>
        </g>
        <g transform="matrix(1.09013,0,0,1.85882,1102.4,0)">
            <path d="M0,124L66.723,0" style="fill:none;stroke:black;stroke-width:4px;" class="GBIGWael_12"></path>
        </g>
        <g transform="matrix(1.09013,0,0,1.85882,1194.26,0)">
            <path d="M0,124L66.723,0" style="fill:none;stroke:black;stroke-width:4px;" class="GBIGWael_13"></path>
        </g>
        <g transform="matrix(1.09013,0,0,1.85882,1286.13,0)">
            <path d="M0,124L66.723,0" style="fill:none;stroke:black;stroke-width:4px;" class="GBIGWael_14"></path>
        </g>
        <g transform="matrix(1.09013,0,0,1.85882,1377.99,0)">
            <path d="M0,124L66.723,0" style="fill:none;stroke:black;stroke-width:4px;" class="GBIGWael_15"></path>
        </g>
        <g transform="matrix(1.09013,0,0,1.85882,1469.86,0)">
            <path d="M0,124L66.723,0" style="fill:none;stroke:black;stroke-width:4px;" class="GBIGWael_16"></path>
        </g>
    </g>
<style data-made-with="vivus-instant">.GBIGWael_0{stroke-dasharray:141 143;stroke-dashoffset:142;}.start .GBIGWael_0{animation:GBIGWael_draw 800ms ease-in-out 0ms forwards;}.GBIGWael_1{stroke-dasharray:141 143;stroke-dashoffset:142;}.start .GBIGWael_1{animation:GBIGWael_draw 800ms ease-in-out 25ms forwards;}.GBIGWael_2{stroke-dasharray:141 143;stroke-dashoffset:142;}.start .GBIGWael_2{animation:GBIGWael_draw 800ms ease-in-out 50ms forwards;}.GBIGWael_3{stroke-dasharray:141 143;stroke-dashoffset:142;}.start .GBIGWael_3{animation:GBIGWael_draw 800ms ease-in-out 75ms forwards;}.GBIGWael_4{stroke-dasharray:141 143;stroke-dashoffset:142;}.start .GBIGWael_4{animation:GBIGWael_draw 800ms ease-in-out 100ms forwards;}.GBIGWael_5{stroke-dasharray:141 143;stroke-dashoffset:142;}.start .GBIGWael_5{animation:GBIGWael_draw 800ms ease-in-out 125ms forwards;}.GBIGWael_6{stroke-dasharray:141 143;stroke-dashoffset:142;}.start .GBIGWael_6{animation:GBIGWael_draw 800ms ease-in-out 150ms forwards;}.GBIGWael_7{stroke-dasharray:141 143;stroke-dashoffset:142;}.start .GBIGWael_7{animation:GBIGWael_draw 800ms ease-in-out 175ms forwards;}.GBIGWael_8{stroke-dasharray:141 143;stroke-dashoffset:142;}.start .GBIGWael_8{animation:GBIGWael_draw 800ms ease-in-out 200ms forwards;}.GBIGWael_9{stroke-dasharray:141 143;stroke-dashoffset:142;}.start .GBIGWael_9{animation:GBIGWael_draw 800ms ease-in-out 225ms forwards;}.GBIGWael_10{stroke-dasharray:141 143;stroke-dashoffset:142;}.start .GBIGWael_10{animation:GBIGWael_draw 800ms ease-in-out 250ms forwards;}.GBIGWael_11{stroke-dasharray:141 143;stroke-dashoffset:142;}.start .GBIGWael_11{animation:GBIGWael_draw 800ms ease-in-out 275ms forwards;}.GBIGWael_12{stroke-dasharray:141 143;stroke-dashoffset:142;}.start .GBIGWael_12{animation:GBIGWael_draw 800ms ease-in-out 300ms forwards;}.GBIGWael_13{stroke-dasharray:141 143;stroke-dashoffset:142;}.start .GBIGWael_13{animation:GBIGWael_draw 800ms ease-in-out 325ms forwards;}.GBIGWael_14{stroke-dasharray:141 143;stroke-dashoffset:142;}.start .GBIGWael_14{animation:GBIGWael_draw 800ms ease-in-out 350ms forwards;}.GBIGWael_15{stroke-dasharray:141 143;stroke-dashoffset:142;}.start .GBIGWael_15{animation:GBIGWael_draw 800ms ease-in-out 375ms forwards;}.GBIGWael_16{stroke-dasharray:141 143;stroke-dashoffset:142;}.start .GBIGWael_16{animation:GBIGWael_draw 800ms ease-in-out 400ms forwards;}@keyframes GBIGWael_draw{100%{stroke-dashoffset:0;}}@keyframes GBIGWael_fade{0%{stroke-opacity:1;}92.5925925925926%{stroke-opacity:1;}100%{stroke-opacity:0;}}</style></svg>
