<!--?xml version="1.0" encoding="UTF-8" standalone="no"?-->

<svg width="100%" height="100%" viewBox="0 0 1495 124" version="1.1" xmlns="http://www.w3.org/2000/svg" xmlns:xlink="http://www.w3.org/1999/xlink" xml:space="preserve" xmlns:serif="http://www.serif.com/" style="fill-rule: evenodd; clip-rule: evenodd; stroke-linecap: round; stroke-linejoin: round; stroke-miterlimit: 1.5;" class="">
    <g id="Xs-and--s" serif:id="Xs and +s" transform="matrix(0.91732,0,0,0.537977,0,0)">
        <path width="1629.61" height="228.871" style="fill:none;" d="M0 0 L1629.61 0 L1629.61 228.871 L0 228.871 Z" class="feBVKoDh_0"></path>
        <g transform="matrix(0.77084,0,0,1.31438,-136.978,-79.1819)">
            <path d="M189.374,147.998L335.256,147.998" style="fill:none;stroke:rgb(217,217,217);stroke-width:20.62px;" class="feBVKoDh_1"></path>
            <g transform="matrix(6.12323e-17,-1,1,6.12323e-17,114.317,410.313)">
                <path d="M189.374,147.998L335.256,147.998" style="fill:none;stroke:rgb(217,217,217);stroke-width:20.62px;" class="feBVKoDh_2"></path>
            </g>
        </g>
        <g transform="matrix(0.77084,0,0,1.31438,74.0978,-79.1819)">
            <path d="M189.374,147.998L335.256,147.998" style="fill:none;stroke:rgb(217,217,217);stroke-width:20.62px;" class="feBVKoDh_3"></path>
            <g transform="matrix(6.12323e-17,-1,1,6.12323e-17,114.317,410.313)">
                <path d="M189.374,147.998L335.256,147.998" style="fill:none;stroke:rgb(217,217,217);stroke-width:20.62px;" class="feBVKoDh_4"></path>
            </g>
        </g>
        <g transform="matrix(0.77084,0,0,1.31438,285.174,-79.1819)">
            <path d="M189.374,147.998L335.256,147.998" style="fill:none;stroke:rgb(217,217,217);stroke-width:20.62px;" class="feBVKoDh_5"></path>
            <g transform="matrix(6.12323e-17,-1,1,6.12323e-17,114.317,410.313)">
                <path d="M189.374,147.998L335.256,147.998" style="fill:none;stroke:rgb(217,217,217);stroke-width:20.62px;" class="feBVKoDh_6"></path>
            </g>
        </g>
        <g transform="matrix(0.77084,0,0,1.31438,496.25,-79.1819)">
            <path d="M189.374,147.998L335.256,147.998" style="fill:none;stroke:rgb(217,217,217);stroke-width:20.62px;" class="feBVKoDh_7"></path>
            <g transform="matrix(6.12323e-17,-1,1,6.12323e-17,114.317,410.313)">
                <path d="M189.374,147.998L335.256,147.998" style="fill:none;stroke:rgb(217,217,217);stroke-width:20.62px;" class="feBVKoDh_8"></path>
            </g>
        </g>
        <g transform="matrix(0.77084,1.31438,-0.77084,1.31438,821.409,-423.964)">
            <path d="M189.374,147.998L335.256,147.998" style="fill:none;stroke:rgb(217,217,217);stroke-width:14.58px;" class="feBVKoDh_9"></path>
            <g transform="matrix(6.12323e-17,-1,1,6.12323e-17,114.317,410.313)">
                <path d="M189.374,147.998L335.256,147.998" style="fill:none;stroke:rgb(217,217,217);stroke-width:14.58px;" class="feBVKoDh_10"></path>
            </g>
        </g>
        <g transform="matrix(0.77084,1.31438,-0.77084,1.31438,1039.1,-423.964)">
            <path d="M189.374,147.998L335.256,147.998" style="fill:none;stroke:rgb(217,217,217);stroke-width:14.58px;" class="feBVKoDh_11"></path>
            <g transform="matrix(6.12323e-17,-1,1,6.12323e-17,114.317,410.313)">
                <path d="M189.374,147.998L335.256,147.998" style="fill:none;stroke:rgb(217,217,217);stroke-width:14.58px;" class="feBVKoDh_12"></path>
            </g>
        </g>
        <g transform="matrix(0.77084,1.31438,-0.77084,1.31438,1256.8,-423.964)">
            <path d="M189.374,147.998L335.256,147.998" style="fill:none;stroke:rgb(217,217,217);stroke-width:14.58px;" class="feBVKoDh_13"></path>
            <g transform="matrix(6.12323e-17,-1,1,6.12323e-17,114.317,410.313)">
                <path d="M189.374,147.998L335.256,147.998" style="fill:none;stroke:rgb(217,217,217);stroke-width:14.58px;" class="feBVKoDh_14"></path>
            </g>
        </g>
        <g transform="matrix(0.77084,1.31438,-0.77084,1.31438,1474.5,-423.964)">
            <path d="M189.374,147.998L335.256,147.998" style="fill:none;stroke:rgb(217,217,217);stroke-width:14.58px;" class="feBVKoDh_15"></path>
            <g transform="matrix(6.12323e-17,-1,1,6.12323e-17,114.317,410.313)">
                <path d="M189.374,147.998L335.256,147.998" style="fill:none;stroke:rgb(217,217,217);stroke-width:14.58px;" class="feBVKoDh_16"></path>
            </g>
        </g>
    </g>
<style data-made-with="vivus-instant">.feBVKoDh_0{stroke-dasharray:3717 3719;stroke-dashoffset:3718;}.start .feBVKoDh_0{animation:feBVKoDh_draw 500ms ease-out 0ms forwards;}.feBVKoDh_1{stroke-dasharray:146 148;stroke-dashoffset:147;}.start .feBVKoDh_1{animation:feBVKoDh_draw 500ms ease-out 93ms forwards;}.feBVKoDh_2{stroke-dasharray:146 148;stroke-dashoffset:147;}.start .feBVKoDh_2{animation:feBVKoDh_draw 500ms ease-out 187ms forwards;}.feBVKoDh_3{stroke-dasharray:146 148;stroke-dashoffset:147;}.start .feBVKoDh_3{animation:feBVKoDh_draw 500ms ease-out 281ms forwards;}.feBVKoDh_4{stroke-dasharray:146 148;stroke-dashoffset:147;}.start .feBVKoDh_4{animation:feBVKoDh_draw 500ms ease-out 375ms forwards;}.feBVKoDh_5{stroke-dasharray:146 148;stroke-dashoffset:147;}.start .feBVKoDh_5{animation:feBVKoDh_draw 500ms ease-out 468ms forwards;}.feBVKoDh_6{stroke-dasharray:146 148;stroke-dashoffset:147;}.start .feBVKoDh_6{animation:feBVKoDh_draw 500ms ease-out 562ms forwards;}.feBVKoDh_7{stroke-dasharray:146 148;stroke-dashoffset:147;}.start .feBVKoDh_7{animation:feBVKoDh_draw 500ms ease-out 656ms forwards;}.feBVKoDh_8{stroke-dasharray:146 148;stroke-dashoffset:147;}.start .feBVKoDh_8{animation:feBVKoDh_draw 500ms ease-out 750ms forwards;}.feBVKoDh_9{stroke-dasharray:146 148;stroke-dashoffset:147;}.start .feBVKoDh_9{animation:feBVKoDh_draw 500ms ease-out 843ms forwards;}.feBVKoDh_10{stroke-dasharray:146 148;stroke-dashoffset:147;}.start .feBVKoDh_10{animation:feBVKoDh_draw 500ms ease-out 937ms forwards;}.feBVKoDh_11{stroke-dasharray:146 148;stroke-dashoffset:147;}.start .feBVKoDh_11{animation:feBVKoDh_draw 500ms ease-out 1031ms forwards;}.feBVKoDh_12{stroke-dasharray:146 148;stroke-dashoffset:147;}.start .feBVKoDh_12{animation:feBVKoDh_draw 500ms ease-out 1125ms forwards;}.feBVKoDh_13{stroke-dasharray:146 148;stroke-dashoffset:147;}.start .feBVKoDh_13{animation:feBVKoDh_draw 500ms ease-out 1218ms forwards;}.feBVKoDh_14{stroke-dasharray:146 148;stroke-dashoffset:147;}.start .feBVKoDh_14{animation:feBVKoDh_draw 500ms ease-out 1312ms forwards;}.feBVKoDh_15{stroke-dasharray:146 148;stroke-dashoffset:147;}.start .feBVKoDh_15{animation:feBVKoDh_draw 500ms ease-out 1406ms forwards;}.feBVKoDh_16{stroke-dasharray:146 148;stroke-dashoffset:147;}.start .feBVKoDh_16{animation:feBVKoDh_draw 500ms ease-out 1500ms forwards;}@keyframes feBVKoDh_draw{100%{stroke-dashoffset:0;}}@keyframes feBVKoDh_fade{0%{stroke-opacity:1;}93.54838709677419%{stroke-opacity:1;}100%{stroke-opacity:0;}}</style></svg>
